<?xml version="1.0" standalone="no"?>
<!DOCTYPE svg PUBLIC "-//W3C//DTD SVG 1.1//EN" "http://www.w3.org/Graphics/SVG/1.1/DTD/svg11.dtd">
<!--Generator: Xara Xtreme (www.xara.com), SVG filter version: 1.0.0.13-->
<svg stroke-width="0.501" stroke-linejoin="bevel" fill-rule="evenodd" xmlns:xlink="http://www.w3.org/1999/xlink" xmlns="http://www.w3.org/2000/svg" version="1.1" overflow="visible" width="375pt" height="375pt" viewBox="0 0 375 375">
 <defs>
  <marker id="DefaultArrow2" markerUnits="strokeWidth" viewBox="0 0 1 1" markerWidth="1" markerHeight="1" overflow="visible" orient="auto">
   <!-- REF_ARROW_STRAIGHT (-2) -->
   <g transform="scale(0.0092592592)">
    <!-- 1/108 -->
    <path d="M -9 54 L -9 -54 L 117 0 z"/>
   </g>
  </marker>
  <marker id="DefaultArrow3" markerUnits="strokeWidth" viewBox="0 0 1 1" markerWidth="1" markerHeight="1" overflow="visible" orient="auto">
   <!-- REF_ARROW_ANGLED -->
   <g transform="scale(0.0092592592)">
    <path d="M -27 54 L -9 0 L -27 -54 L 135 0 z"/>
   </g>
  </marker>
  <marker id="DefaultArrow4" markerUnits="strokeWidth" viewBox="0 0 1 1" markerWidth="1" markerHeight="1" overflow="visible" orient="auto">
   <!-- REF_ARROW_ROUNDED -->
   <g transform="scale(0.0092592592)">
    <path d="M -9,0 L -9,-45 C -9,-51.708 2.808,-56.580 9,-54 L 117,-9 C 120.916,-7.369 126.000,-4.242 126,0 C 126,4.242 120.916,7.369 117,9 L 9,54 C 2.808,56.580 -9,51.708 -9,45 z"/>
   </g>
  </marker>
  <marker id="DefaultArrow5" markerUnits="strokeWidth" viewBox="0 0 1 1" markerWidth="1" markerHeight="1" overflow="visible" orient="auto">
   <!-- REF_ARROW_SPOT -->
   <g transform="scale(0.0092592592)">
    <path d="M -54, 0 C -54,29.807 -29.807,54 0,54 C 29.807,54 54,29.807 54,0 C 54,-29.807 29.807,-54 0,-54 C -29.807,-54 -54,-29.807 -54,0 z"/>
   </g>
  </marker>
  <marker id="DefaultArrow6" markerUnits="strokeWidth" viewBox="0 0 1 1" markerWidth="1" markerHeight="1" overflow="visible" orient="auto">
   <!-- REF_ARROW_DIAMOND -->
   <g transform="scale(0.0092592592)">
    <path d="M -63,0 L 0,63 L 63,0 L 0,-63 z"/>
   </g>
  </marker>
  <marker id="DefaultArrow7" markerUnits="strokeWidth" viewBox="0 0 1 1" markerWidth="1" markerHeight="1" overflow="visible" orient="auto">
   <!-- REF_ARROW_FEATHER -->
   <g transform="scale(0.0092592592)">
    <path d="M 18,-54 L 108,-54 L 63,0 L 108,54 L 18, 54 L -36,0 z"/>
   </g>
  </marker>
  <marker id="DefaultArrow8" markerUnits="strokeWidth" viewBox="0 0 1 1" markerWidth="1" markerHeight="1" overflow="visible" orient="auto">
   <!-- REF_ARROW_FEATHER2 -->
   <g transform="scale(0.0092592592)">
    <path d="M -36,0 L 18,-54 L 54,-54 L 18,-18 L 27,-18 L 63,-54 L 99,-54 L 63,-18 L 72,-18 L 108,-54 L 144,-54 L 90,0 L 144,54 L 108,54 L 72,18 L 63,18 L 99,54 L 63,54 L 27,18 L 18,18 L 54,54 L 18,54 z"/>
   </g>
  </marker>
  <marker id="DefaultArrow9" markerUnits="strokeWidth" viewBox="0 0 1 1" markerWidth="1" markerHeight="1" overflow="visible" orient="auto">
   <!-- REF_ARROW_HOLLOWDIAMOND -->
   <g transform="scale(0.0092592592)">
    <path d="M 0,45 L -45,0 L 0, -45 L 45, 0 z M 0, 63 L-63, 0 L 0, -63 L 63, 0 z"/>
   </g>
  </marker>
  <filter id="StainedFilter">
   <feBlend mode="multiply" in2="BackgroundImage" in="SourceGraphic" result="blend"/>
   <feComposite in="blend" in2="SourceAlpha" operator="in" result="comp"/>
  </filter>
  <filter id="BleachFilter">
   <feBlend mode="screen" in2="BackgroundImage" in="SourceGraphic" result="blend"/>
   <feComposite in="blend" in2="SourceAlpha" operator="in" result="comp"/>
  </filter>
  <filter id="InvertTransparencyBitmapFilter">
   <feComponentTransfer>
    <feFuncR type="gamma" amplitude="1.055" exponent=".416666666" offset="-0.055"/>
    <feFuncG type="gamma" amplitude="1.055" exponent=".416666666" offset="-0.055"/>
    <feFuncB type="gamma" amplitude="1.055" exponent=".416666666" offset="-0.055"/>
   </feComponentTransfer>
   <feComponentTransfer>
    <feFuncR type="linear" slope="-1" intercept="1"/>
    <feFuncG type="linear" slope="-1" intercept="1"/>
    <feFuncB type="linear" slope="-1" intercept="1"/>
    <feFuncA type="linear" slope="1" intercept="0"/>
   </feComponentTransfer>
   <feComponentTransfer>
    <feFuncR type="gamma" amplitude="1" exponent="2.4" offset="0"/>
    <feFuncG type="gamma" amplitude="1" exponent="2.4" offset="0"/>
    <feFuncB type="gamma" amplitude="1" exponent="2.4" offset="0"/>
   </feComponentTransfer>
  </filter>
 </defs>
 <g id="Document" fill="none" stroke="black" font-family="Times New Roman" font-size="16" transform="scale(1 -1)">
  <g id="Spread" transform="translate(0 -375)">
   <g id="Page background">
    <path d="M 0,374.999 L 0,0 L 374.999,0 L 374.999,374.999 L 0,374.999 Z" fill="#333333" stroke="none" stroke-width="0" stroke-linejoin="bevel" marker-start="none" marker-end="none" stroke-miterlimit="79.8403193612775"/>
   </g>
   <g id="Layer 1">
    <g id="Group" fill-rule="nonzero" stroke="none" stroke-width="2.791" fill="#ffffff" stroke-miterlimit="79.8403193612775">
     <g id="Group_1">
      <path d="M 157.725,195.274 L 165.152,195.274 L 165.152,142.121 L 157.725,142.121 L 157.725,195.274 Z M 174.654,156.939 C 172.299,156.938 170.249,157.502 168.501,158.631 C 166.754,159.76 165.468,161.355 164.642,163.418 L 165.152,171.319 C 165.152,169.693 165.443,168.309 166.026,167.169 C 166.608,166.028 167.451,165.154 168.556,164.547 C 169.659,163.94 171.001,163.637 172.579,163.637 C 175.03,163.637 176.929,164.383 178.276,165.877 C 179.623,167.369 180.297,169.474 180.297,172.193 L 180.297,180.384 C 180.297,183.151 179.623,185.299 178.276,186.828 C 176.929,188.357 175.03,189.122 172.579,189.122 C 171.001,189.122 169.659,188.83 168.556,188.248 C 167.451,187.665 166.608,186.81 166.026,185.682 C 165.443,184.553 165.152,183.201 165.152,181.623 L 164.387,188.904 C 165.529,191.111 167.021,192.817 168.865,194.018 C 170.71,195.221 172.76,195.821 175.018,195.821 C 177.687,195.821 179.975,195.221 181.88,194.018 C 183.786,192.817 185.237,191.063 186.231,188.758 C 187.227,186.451 187.724,183.673 187.724,180.42 L 187.724,172.193 C 187.724,168.989 187.214,166.246 186.194,163.965 C 185.175,161.684 183.683,159.942 181.717,158.741 C 179.751,157.538 177.396,156.938 174.654,156.939 Z" marker-start="none" marker-end="none"/>
      <path d="M 194.796,195.274 L 202.223,195.274 L 202.223,157.485 L 194.796,157.485 L 194.796,195.274 Z M 215.584,186.319 C 214.928,187.119 214.104,187.726 213.109,188.139 C 212.113,188.552 210.96,188.758 209.65,188.758 C 207.295,188.758 205.469,188.108 204.171,186.81 C 202.872,185.511 202.223,183.709 202.223,181.404 L 201.458,188.685 C 202.623,190.943 204.128,192.696 205.972,193.946 C 207.818,195.196 209.856,195.821 212.089,195.821 C 213.812,195.821 215.371,195.573 216.767,195.075 C 218.162,194.578 219.382,193.843 220.426,192.872 L 215.584,186.319 Z" marker-start="none" marker-end="none"/>
      <path d="M 238.602,156.939 C 235.107,156.938 232.122,157.593 229.646,158.904 C 227.171,160.215 225.284,162.138 223.985,164.674 C 222.686,167.211 222.037,170.275 222.037,173.867 L 222.037,178.128 C 222.037,181.865 222.663,185.057 223.912,187.702 C 225.162,190.348 226.977,192.362 229.355,193.746 C 231.734,195.129 234.598,195.821 237.948,195.821 C 241.103,195.821 243.796,195.032 246.029,193.454 C 248.262,191.877 249.967,189.595 251.145,186.61 C 252.322,183.624 252.91,180.044 252.91,175.87 L 252.91,173.394 L 227.425,173.394 L 227.425,179.365 L 245.848,179.365 L 245.848,179.365 C 245.629,182.448 244.834,184.844 243.463,186.555 C 242.092,188.266 240.254,189.122 237.948,189.122 C 235.132,189.122 232.953,188.199 231.412,186.355 C 229.871,184.511 229.101,181.901 229.101,178.527 L 229.101,173.722 C 229.101,170.592 229.926,168.188 231.576,166.514 C 233.226,164.838 235.568,164.001 238.602,164.001 C 240.107,164.001 241.6,164.305 243.081,164.912 C 244.561,165.518 245.883,166.368 247.049,167.46 L 247.049,167.46 L 251.928,162.582 L 251.928,162.582 C 250.058,160.786 247.958,159.396 245.629,158.412 C 243.298,157.43 240.956,156.938 238.602,156.939 Z" marker-start="none" marker-end="none"/>
      <path d="M 272.979,156.939 C 270.747,156.938 268.653,157.156 266.7,157.593 C 264.746,158.03 262.92,158.686 261.221,159.56 C 259.522,160.434 257.956,161.526 256.524,162.836 L 256.524,162.836 L 260.93,168.261 L 260.93,168.261 C 262.969,166.708 264.995,165.543 267.009,164.766 C 269.024,163.99 271.014,163.602 272.979,163.601 C 275.917,163.602 278.12,164.056 279.587,164.966 C 281.056,165.876 281.79,167.242 281.79,169.062 C 281.79,170.276 281.389,171.185 280.589,171.792 C 279.788,172.399 278.793,172.806 277.603,173.012 C 276.414,173.218 274.74,173.406 272.58,173.576 C 272.385,173.576 272.179,173.582 271.96,173.595 C 271.742,173.607 271.535,173.625 271.341,173.649 C 271.244,173.649 271.148,173.655 271.05,173.667 C 270.954,173.68 270.857,173.686 270.759,173.686 C 268.308,173.88 266.233,174.238 264.533,174.76 C 262.834,175.282 261.42,176.258 260.292,177.691 C 259.164,179.123 258.6,181.173 258.6,183.843 C 258.6,186.513 259.145,188.734 260.238,190.506 C 261.329,192.278 262.956,193.606 265.116,194.492 C 267.277,195.378 269.983,195.821 273.234,195.821 C 275.201,195.821 277.075,195.639 278.859,195.274 C 280.643,194.911 282.348,194.371 283.975,193.655 C 285.601,192.939 287.167,192.035 288.671,190.943 L 288.671,190.943 L 284.193,185.517 L 284.193,185.517 C 282.3,186.731 280.437,187.641 278.605,188.248 C 276.772,188.855 274.982,189.158 273.234,189.158 C 270.711,189.158 268.818,188.728 267.555,187.866 C 266.294,187.004 265.662,185.712 265.662,183.989 C 265.662,182.969 266.02,182.205 266.736,181.695 C 267.452,181.186 268.356,180.846 269.448,180.676 C 270.541,180.506 272.094,180.36 274.108,180.239 C 274.254,180.214 274.406,180.203 274.564,180.203 C 274.721,180.203 274.885,180.19 275.055,180.166 C 275.128,180.167 275.201,180.167 275.273,180.166 C 275.346,180.167 275.418,180.154 275.492,180.129 C 278.137,179.959 280.388,179.607 282.246,179.074 C 284.101,178.54 285.661,177.484 286.923,175.906 C 288.186,174.329 288.816,172.048 288.816,169.062 C 288.816,166.344 288.234,164.092 287.069,162.308 C 285.904,160.525 284.151,159.184 281.809,158.285 C 279.466,157.387 276.523,156.938 272.979,156.939 Z" marker-start="none" marker-end="none"/>
      <path d="M 308.157,156.939 C 305.925,156.938 303.831,157.156 301.878,157.593 C 299.924,158.03 298.098,158.686 296.399,159.56 C 294.7,160.434 293.134,161.526 291.702,162.836 L 291.702,162.836 L 296.108,168.261 L 296.108,168.261 C 298.147,166.708 300.173,165.543 302.187,164.766 C 304.202,163.99 306.192,163.602 308.157,163.601 C 311.095,163.602 313.298,164.056 314.765,164.966 C 316.234,165.876 316.968,167.242 316.968,169.062 C 316.968,170.276 316.567,171.185 315.767,171.792 C 314.966,172.399 313.971,172.806 312.781,173.012 C 311.592,173.218 309.918,173.406 307.758,173.576 C 307.563,173.576 307.357,173.582 307.138,173.595 C 306.92,173.607 306.713,173.625 306.519,173.649 C 306.422,173.649 306.326,173.655 306.228,173.667 C 306.132,173.68 306.035,173.686 305.937,173.686 C 303.486,173.88 301.411,174.238 299.711,174.76 C 298.012,175.282 296.598,176.258 295.47,177.691 C 294.342,179.123 293.778,181.173 293.778,183.843 C 293.778,186.513 294.323,188.734 295.416,190.506 C 296.507,192.278 298.134,193.606 300.294,194.492 C 302.455,195.378 305.161,195.821 308.412,195.821 C 310.379,195.821 312.253,195.639 314.037,195.274 C 315.821,194.911 317.526,194.371 319.153,193.655 C 320.779,192.939 322.345,192.035 323.849,190.943 L 323.849,190.943 L 319.371,185.517 L 319.371,185.517 C 317.478,186.731 315.615,187.641 313.783,188.248 C 311.95,188.855 310.16,189.158 308.412,189.158 C 305.889,189.158 303.996,188.728 302.733,187.866 C 301.472,187.004 300.84,185.712 300.84,183.989 C 300.84,182.969 301.198,182.205 301.914,181.695 C 302.63,181.186 303.534,180.846 304.626,180.676 C 305.719,180.506 307.272,180.36 309.286,180.239 C 309.432,180.214 309.584,180.203 309.742,180.203 C 309.899,180.203 310.063,180.19 310.233,180.166 C 310.306,180.167 310.379,180.167 310.451,180.166 C 310.524,180.167 310.596,180.154 310.67,180.129 C 313.315,179.959 315.566,179.607 317.424,179.074 C 319.279,178.54 320.839,177.484 322.101,175.906 C 323.364,174.329 323.994,172.048 323.994,169.062 C 323.994,166.344 323.412,164.092 322.247,162.308 C 321.082,160.525 319.329,159.184 316.987,158.285 C 314.644,157.387 311.701,156.938 308.157,156.939 Z" marker-start="none" marker-end="none"/>
     </g>
    </g>
    <path d="M 54.75,205.945 L 54.75,213.113 L 62.303,213.113 L 62.303,205.945 L 54.75,205.945 Z" fill="#ffffff" stroke-width="0.678" stroke="none" fill-rule="evenodd" marker-start="none" marker-end="none" stroke-miterlimit="79.8403193612775"/>
    <path d="M 145.099,187.929 C 144.022,188.454 142.897,188.93 141.734,189.364 L 141.734,191.031 C 142.892,191.464 144.016,191.939 145.099,192.47 C 146.597,193.203 148.007,194.044 149.287,195.011 L 149.287,185.382 C 148.007,186.35 146.597,187.194 145.099,187.929 Z" fill="#ffffff" stroke-width="0.678" stroke="none" fill-rule="evenodd" marker-start="none" marker-end="none" stroke-miterlimit="79.8403193612775"/>
    <path d="M 54.75,158.003 L 54.75,199.847 L 62.303,199.847 L 62.303,168.03 L 78.213,203.853 C 79.07,205.772 80.267,207.112 81.814,207.894 C 83.365,208.684 85.363,209.065 87.78,209.065 C 90.169,209.065 92.141,208.684 93.695,207.894 C 95.244,207.112 96.422,205.772 97.224,203.853 L 111.924,169.47 L 111.924,213.291 L 119.469,213.291 L 119.469,195.165 C 125.115,196.539 130.618,197.724 134.835,199.88 C 138.388,201.695 140.962,204.11 141.734,208.363 L 141.734,220.38 C 141.734,225.097 137.923,228.906 133.215,228.906 L 70.83,228.906 C 66.12,228.906 62.303,225.097 62.303,220.38 L 62.303,219.217 L 54.75,219.217 L 54.75,220.38 C 54.75,229.268 61.943,236.458 70.83,236.458 L 133.215,236.458 C 142.082,236.458 149.287,229.268 149.287,220.38 L 149.287,207.977 C 149.145,206.986 148.909,206.091 148.581,205.274 C 148.132,203.798 147.519,202.473 146.162,200.429 C 144.281,197.494 141.431,195.226 138.086,193.517 C 135.319,192.103 132.255,191.076 129.081,190.201 C 132.255,189.32 135.341,188.282 138.086,186.881 C 140.862,185.46 147.555,178.91 148.703,174.807 C 148.97,174.067 149.164,173.277 149.287,172.418 L 149.287,167.885 L 141.734,167.885 L 141.734,172.037 C 140.962,176.287 138.388,178.702 134.835,180.519 C 130.636,182.664 124.991,183.9 119.468,185.239 L 119.468,167.885 L 103.768,167.885 L 89.943,200.422 C 89.542,201.348 88.794,201.804 87.718,201.804 C 86.637,201.804 85.881,201.348 85.425,200.422 L 71.001,167.861 L 62.303,167.861 L 62.303,158.003 C 62.303,153.295 66.12,149.476 70.83,149.476 L 133.215,149.476 C 137.923,149.476 141.734,153.295 141.734,158.003 L 141.734,161.524 L 149.287,161.524 L 149.287,158.003 C 149.287,149.136 142.082,141.923 133.215,141.923 L 70.83,141.923 C 61.943,141.923 54.75,149.136 54.75,158.003 Z M 83.42,184.453 C 83.42,186.706 85.249,188.538 87.5,188.538 C 89.753,188.538 91.582,186.706 91.582,184.453 C 91.582,182.198 89.753,180.368 87.5,180.368 C 85.249,180.368 83.42,182.198 83.42,184.453 Z" fill="#008abf" stroke-width="0.678" stroke="none" fill-rule="evenodd" marker-start="none" marker-end="none" stroke-miterlimit="79.8403193612775"/>
   </g>
  </g>
 </g>
</svg>
